<?xml version="1.0" encoding="utf-8"?>
<!-- Generator: Adobe Illustrator 24.3.0, SVG Export Plug-In . SVG Version: 6.00 Build 0)  -->
<svg version="1.1" id="Layer_1" xmlns="http://www.w3.org/2000/svg" xmlns:xlink="http://www.w3.org/1999/xlink" x="0px" y="0px"
	 viewBox="0 0 507.3 180.3" style="enable-background:new 0 0 507.3 180.3;" xml:space="preserve">
<style type="text/css">
	.st0{fill:none;}
	.st1{fill:#189AD3;}
	.st2{fill:none;stroke:#189AD3;stroke-miterlimit:10;}
</style>
<rect x="-0.1" y="0" class="st0" width="504.5" height="180.2"/>
<rect x="200.2" y="-147.2" class="st0" width="103.5" height="147.2"/>
<rect x="200" y="180.2" class="st0" width="103.5" height="147.2"/>
<rect x="-147.5" y="38.1" class="st0" width="147.2" height="103.5"/>
<rect x="504.6" y="38.7" class="st0" width="147.2" height="103.5"/>
<polygon class="st1" points="226.9,101.4 226.9,101.4 227,100.6 "/>
<polygon class="st1" points="257,85.5 257,85.5 257,85.5 "/>
<path class="st1" d="M96.3,0.2H2.9C1.3,0.2,0,1.5,0,3v21.8c0,1.6,1.3,2.8,2.8,2.8H33c1.6,0,2.8,1.3,2.8,2.9v113.7
	c0,1.6,1.3,2.8,2.8,2.8h21.8c1.6,0,2.8-1.3,2.8-2.8V30.6c0-1.6,1.3-2.8,2.9-2.9h30.1c1.6,0,2.8-1.3,2.8-2.8c0,0,0,0,0,0V3
	C99.1,1.5,97.8,0.2,96.3,0.2z"/>
<path class="st1" d="M105.5,144.1V6.5c0-1.7,1.3-3,3-3L130,0.2c1.7,0,3,1.3,3,3l0,0v141c0,1.6-1.4,3-3,2.9h-21.6
	C106.8,147.1,105.5,145.8,105.5,144.1z"/>
<path class="st1" d="M366.9,144.4V38.3c0-1.5,1.2-2.7,2.7-2.7l0,0l22.2-3.3c1.5,0,2.7,1.2,2.7,2.6c0,0,0,0,0,0v109.4
	c0,1.5-1.2,2.7-2.6,2.7c0,0,0,0,0,0h-22.2C368.1,147.1,366.9,145.9,366.9,144.4C366.9,144.4,366.9,144.4,366.9,144.4z"/>
<path class="st1" d="M394.4,2.7V19c0,1.4-1.1,2.5-2.5,2.5h-22.6c-1.4,0-2.5-1.1-2.5-2.5V2.7c0-1.4,1.1-2.5,2.5-2.5h22.6
	C393.3,0.2,394.4,1.3,394.4,2.7z"/>
<path class="st1" d="M236.7,73c-1.7-23.1-13.5-33.5-25-37.8h-0.1c-8.9-3.3-17.5-2.9-21.4-1.8c-9.2,2.4-17.1,8.4-21.8,16.6
	c-0.7,1.1-2.1,1.4-3.1,0.8c-0.6-0.4-1-1-1.1-1.8V35.4c0-1.7-1.3-3-2.9-3.1c-0.3,0-0.5,0-0.7,0.1l-19.3,3.1c-1.4,0.3-2.4,1.6-2.4,3
	v87c0,0.1,0,0.1,0,0.2v18.5c0,0.1,0,0.1,0,0.2c0.1,1.5,1.4,2.7,2.9,2.7h19.5c1.6,0,2.9-1.3,2.9-2.9v-18.6V97.7c0-0.5,0-8.6,0.1-9.4
	c0.5-8.7,4.7-32,26.7-31.7c16.4,0.2,20.6,19.1,20.7,25.9V144c0,1.7,1.3,3,3,3h19.1c1.7,0,3-1.3,3-3V73.3
	C236.7,73.2,236.7,73.1,236.7,73z"/>
<path class="st1" d="M358.1,33.2c-0.3-0.1-0.5-0.2-0.8-0.2c-3.8-0.8-7.8-0.7-11.6,0.3c-7.7,2-14.4,6.5-19.2,12.8
	c-0.2,0.3-0.4,0.5-0.6,0.8c-0.7,1-1.4,2.1-2,3.1c-0.7,1.1-2.1,1.4-3.1,0.8c-0.6-0.4-1-1-1.1-1.8V35.4c0-1.7-1.3-3-2.9-3.1
	c-0.3,0-0.5,0-0.7,0.1l-19.3,3.1c-1.4,0.3-2.4,1.6-2.4,3v87c0,0.1,0,0.1,0,0.2v18.5c0,0.1,0,0.1,0,0.2c0.1,1.5,1.4,2.7,2.9,2.7h19.5
	c1.6,0,2.9-1.3,2.9-2.9c0,0,0,0,0,0v-18.5c0,0,0,0,0-0.1V97.8c0-0.5,0-8.6,0.1-9.4c0.3-5,1.8-14.8,7.1-22.2c4-5.5,10.2-9.7,19.6-9.6
	c2.8,0,5.5,0.6,8,1.9h0.1c1.2,0.3,2.5-0.3,3.1-1.4c0.3-0.4,0.4-0.9,0.5-1.3l0.5-5.2l1.5-14.2C360.2,35.1,359.4,33.7,358.1,33.2z"/>
<path class="st1" d="M288.1,48.5V35.2c0-1.6-1.3-2.8-2.9-2.8h-11.6c-1.6,0-2.9-1.3-2.9-2.8c0,0,0,0,0,0V3c0-1.6-1.3-2.8-2.8-2.8
	l-21.8,3.3c-1.6,0-2.9,1.3-2.9,2.8c0,0,0,0,0,0v127.2c0,10.4,2.6,13.6,12.3,13.6h26.5c1.6,0,2.8-1.3,2.9-2.8c0,0,0,0,0,0l3.3-19.8
	c0-1.6-1.3-2.8-2.9-2.8h-11.7c-1.6,0-2.9-1.3-2.9-2.8c0,0,0,0,0,0V54.2c0-1.6,1.3-2.8,2.9-2.8h11.5C286.8,51.3,288.1,50,288.1,48.5z
	"/>
<path class="st1" d="M424.9,179.9h-22c-1.1-0.5-1.8-1.5-2.1-2.6V38.7c0.4-1.4,1.6-2.4,3.1-2.6c6.2-1.1,12.4-2.3,18.6-3.4
	c3.4-0.6,4.4,0.3,4.4,3.8c0,1.5,0,2.9,0,4.4c0,0.5-0.2,1,0.2,1.5c0,0,0.1,0,0.1,0c0.9-0.6,1.8-1.2,2.7-1.8c11.4-7.8,23.9-9.6,37-5.9
	c8.9,2.5,16,7.9,21.9,14.9c7.2,8.4,12.1,18,14.1,28.9c0.4,2.2,0.6,4.3,0.9,6.5v8.7c-0.2,0.4-0.3,0.8-0.2,1.3
	c-0.3,6.2-1.5,12.4-3.5,18.3c-4.8,13.5-13.3,23.8-26.5,29.9c-6.6,3.1-14,4.4-21.3,3.6c-7.4-0.8-14-4-20-8.4
	c-1.3-0.9-2.3-2.1-3.2-3.4c-2-3-2-6.9,0.2-9.8c2.2-2.9,6.1-4,9.5-2.6c2.2,0.8,4.2,2,6.4,2.9c8.1,3.5,14.9,2.5,20.7-4
	c2.8-3.1,5-6.6,6.6-10.5c5.9-14.5,5.2-28.8-1.3-42.9c-3.4-7.3-9.1-12.3-16.3-15.6c-3-1.4-6.4-1.7-9.6-0.9c-6.2,1.5-10.6,5.4-14,10.6
	s-4.5,11-4.5,17.1c-0.1,14.2,0,28.3,0,42.5c0,18,0.2,36-0.1,54C426.9,177.5,426.5,179,424.9,179.9z"/>
<rect x="-147.6" y="-147.3" class="st0" width="799.5" height="474.9"/>
<path class="st1" d="M494.3,21.5c0.6-0.1,1.3-0.2,1.9-0.2c0.8-0.1,1.6,0.1,2.2,0.6c0.4,0.4,0.6,0.9,0.6,1.5c0,0.9-0.6,1.8-1.5,2l0,0
	c0.6,0.3,1.1,0.9,1.1,1.6c0.1,0.7,0.3,1.4,0.6,2.1h-1c-0.2-0.6-0.4-1.2-0.5-1.9c-0.2-1.1-0.6-1.5-1.6-1.5h-1v3.4h-1L494.3,21.5z
	 M495.3,25.1h1c1.1,0,1.8-0.6,1.8-1.5s-0.7-1.5-1.8-1.5c-0.3,0-0.7,0-1,0.1L495.3,25.1z"/>
<path class="st2" d="M504,25.8c0,4.2-3.4,7.5-7.5,7.5c-4.2,0-7.5-3.4-7.5-7.5s3.4-7.5,7.5-7.5c0,0,0,0,0,0
	C500.7,18.3,504,21.6,504,25.8C504,25.8,504,25.8,504,25.8z"/>
</svg>
